<?xml version="1.0" encoding="UTF-8"?>
<svg id="Camada_3" data-name="Camada 3" xmlns="http://www.w3.org/2000/svg" viewBox="0 0 1083.13 226.99">
  <defs>
    <style>
      .cls-1 {
        fill: #191919;
      }
    </style>
  </defs>
  <g id="Camada_1" data-name="Camada 1">
    <g>
      <path class="cls-1" d="M224.22,25.35c-4.75-6.37-10.7-11.41-17.85-15.1-7.15-3.69-15.52-5.53-25.1-5.53-6.05,0-11.78.75-17.16,2.26-5.38,1.51-10.26,3.44-14.63,5.79-4.37,2.35-8.14,4.95-11.29,7.8-3.15,2.85-5.53,5.58-7.13,8.18-2.61-3.86-5.38-7.28-8.33-10.25-2.94-2.98-6.2-5.49-9.78-7.55-3.58-2.05-7.53-3.61-11.86-4.66-4.33-1.05-9.14-1.57-14.44-1.57-6.73,0-12.59.74-17.6,2.2-5.01,1.47-9.31,3.34-12.93,5.6-3.62,2.26-6.6,4.78-8.96,7.55-2.36,2.77-4.16,5.45-5.42,8.05l-2.65-11.07c-.42-1.26-.86-2.47-1.32-3.65-.46-1.17-1.07-2.22-1.83-3.15-.76-.92-1.68-1.66-2.78-2.21-1.09-.55-2.4-.82-3.91-.82H10.22c-1.09,0-2.25.13-3.47.38-1.22.25-2.38.84-3.47,1.77l.76-.38c-1.26.75-2.25,1.8-2.96,3.15-.72,1.34-1.07,2.81-1.07,4.4v141.07c0,2.94.8,5.3,2.4,7.06,1.6,1.77,4.2,2.65,7.82,2.65h28.51c1.26,0,2.37-.13,3.34-.38.97-.25,2-.71,3.09-1.39,1.09-.76,1.91-1.85,2.46-3.28.55-1.43.82-2.86.82-4.29v-83.26c.25-3.78,1.16-7.23,2.71-10.34,1.55-3.11,3.49-5.78,5.8-8.01,2.31-2.23,4.92-3.95,7.82-5.17,2.9-1.22,5.87-1.83,8.89-1.83,3.53,0,6.71.65,9.52,1.95,2.82,1.3,5.21,3.11,7.19,5.42,1.98,2.31,3.49,5.03,4.54,8.14,1.05,3.11,1.58,6.48,1.58,10.09v83.38c0,3.53.67,5.91,2.02,7.13,1.35,1.22,3.83,1.83,7.44,1.83h29.14c3.03,0,5.24-.82,6.62-2.46,1.39-1.64,2.08-4.06,2.08-7.25v-82.63c0-3.78.65-7.25,1.95-10.41,1.3-3.15,3.05-5.84,5.24-8.07,2.19-2.23,4.71-3.97,7.57-5.24,2.86-1.26,5.89-1.89,9.08-1.89,3.53,0,6.75.65,9.65,1.95,2.9,1.3,5.36,3.11,7.38,5.42,2.02,2.31,3.6,5.03,4.73,8.14,1.14,3.11,1.7,6.48,1.7,10.09v83.38c0,3.53.67,5.91,2.02,7.13,1.35,1.22,3.83,1.83,7.44,1.83h29.14c3.03,0,5.24-.82,6.62-2.46,1.39-1.64,2.08-4.06,2.08-7.25v-82.63c0-9.67-1.18-18.77-3.53-27.29-2.36-8.52-5.91-15.97-10.66-22.34Z"/>
      <path class="cls-1" d="M400.13,42.75c-3.45-5.59-7.57-10.74-12.36-15.45-4.79-4.71-10.07-8.75-15.83-12.11-5.76-3.36-11.92-5.97-18.48-7.82-6.56-1.85-13.33-2.77-20.31-2.77-7.65,0-14.93,1.01-21.82,3.03-6.9,2.02-13.29,4.84-19.17,8.45-5.89,3.62-11.21,7.97-15.96,13.06-4.75,5.09-8.79,10.66-12.11,16.71-3.32,6.06-5.89,12.55-7.7,19.49-1.81,6.94-2.71,14.11-2.71,21.51,0,11.86,2.27,22.83,6.81,32.92,4.54,10.09,10.68,18.86,18.42,26.3,7.74,7.44,16.73,13.27,27,17.47,10.26,4.2,21.15,6.31,32.67,6.31,10.34,0,20.14-1.91,29.39-5.74,9.25-3.83,17.58-9.14,24.98-15.96,1.26-.92,2.35-2,3.28-3.22.92-1.22,1.39-2.67,1.39-4.35,0-.92-.13-1.83-.38-2.71-.25-.88-.84-1.87-1.77-2.96l-13.37-15.14c-1.43-1.43-2.71-2.52-3.85-3.28-1.13-.76-2.25-1.14-3.34-1.14s-2.12.27-3.09.82c-.97.55-2.12,1.37-3.47,2.46-1.51,1.51-3.51,2.96-5.99,4.35-2.48,1.39-5.22,2.61-8.2,3.66-2.99,1.05-6.08,1.89-9.27,2.52-3.2.63-6.31.95-9.33.95-3.36,0-6.94-.46-10.72-1.39-3.78-.92-7.36-2.46-10.72-4.6-3.36-2.14-6.33-5.02-8.89-8.64-2.57-3.61-4.27-8.11-5.11-13.5h90.82c5.3,0,9.31-.31,12.05-.95,2.73-.63,4.69-1.77,5.87-3.41,1.18-1.64,1.83-3.85,1.96-6.62.13-2.77.19-6.35.19-10.72,0-6.73-.95-13.27-2.84-19.62-1.89-6.35-4.56-12.32-8.01-17.91ZM301.61,66.15c1.34-2.86,3.09-5.68,5.24-8.45,2.14-2.78,4.56-5.25,7.25-7.44,2.69-2.19,5.57-3.93,8.64-5.24,3.07-1.3,6.24-1.95,9.52-1.95,4.54,0,8.52.59,11.92,1.77,3.41,1.18,6.43,2.82,9.08,4.92,2.65,2.1,5,4.54,7.06,7.32,2.06,2.78,3.97,5.8,5.74,9.08h-64.46Z"/>
      <path class="cls-1" d="M569.04,7.11h-28.51c-1.26,0-2.38.13-3.34.38-.97.25-2,.72-3.09,1.39-1.09.76-1.91,1.85-2.46,3.28-.55,1.43-.82,2.86-.82,4.29v82.08c0,4.71-1.01,8.76-3.03,12.12-2.02,3.37-4.54,6.13-7.57,8.27-3.03,2.15-6.31,3.73-9.84,4.73-3.53,1.01-6.81,1.52-9.84,1.52-3.53,0-6.87-.72-10.03-2.15-3.15-1.43-5.91-3.39-8.26-5.87-2.36-2.48-4.23-5.35-5.61-8.59-1.39-3.24-2.08-6.67-2.08-10.29V16.08c0-3.54-.67-5.91-2.02-7.14-1.35-1.22-3.83-1.83-7.44-1.83h-29.14c-3.03,0-5.24.82-6.62,2.46-1.39,1.64-2.08,4.06-2.08,7.25v82.63c0,9.67,1.3,18.78,3.91,27.31,2.61,8.54,6.45,16,11.54,22.39,5.09,6.39,11.33,11.44,18.73,15.14,7.4,3.7,15.89,5.55,25.48,5.55,6.64,0,12.78-.8,18.42-2.39,5.63-1.59,10.62-3.61,14.95-6.04,4.33-2.43,7.97-5.1,10.91-7.99,2.94-2.89,5.05-5.64,6.31-8.24l2.65,12.33c.34,1.26.76,2.47,1.26,3.65.51,1.17,1.14,2.22,1.89,3.15.76.92,1.68,1.66,2.77,2.2,1.09.55,2.4.82,3.91.82h19.05c1.09,0,2.25-.13,3.47-.38,1.22-.25,2.37-.84,3.47-1.77l-.76.38c1.26-.76,2.25-1.81,2.96-3.15.71-1.34,1.07-2.82,1.07-4.42V16.83c0-2.94-.8-5.3-2.4-7.06-1.6-1.77-4.21-2.65-7.82-2.65Z"/>
      <path class="cls-1" d="M759.83,8.88c-.97-.76-2.04-1.34-3.22-1.77-1.18-.42-2.36-.63-3.53-.63h-18.8c-1.68,0-3.05.21-4.1.63-1.05.42-1.91,1.03-2.59,1.83-.67.8-1.22,1.79-1.64,2.96-.42,1.18-.88,2.48-1.39,3.91l-3.53,11.23c-2.52-3.11-5.26-6.06-8.2-8.83-2.94-2.77-6.2-5.19-9.78-7.25-3.58-2.06-7.51-3.68-11.79-4.86-4.29-1.18-9.04-1.77-14.25-1.77-11.35,0-21.87,2.12-31.54,6.37-9.67,4.25-18.04,10.09-25.1,17.53-7.06,7.44-12.57,16.19-16.52,26.24-3.95,10.05-5.93,20.84-5.93,32.36s1.97,22.24,5.93,31.91c3.95,9.67,9.46,17.98,16.52,24.91,7.06,6.94,15.43,12.34,25.1,16.21,9.67,3.87,20.18,5.8,31.54,5.8,5.13,0,9.63-.61,13.5-1.83,3.87-1.22,7.34-2.82,10.41-4.79,3.07-1.97,5.87-4.23,8.39-6.75s5-5.09,7.44-7.7v1.7c0,.38.02.69.06.95.04.25.06.57.06.95v1.7c0,2.19-.08,4.29-.25,6.31-.17,2.02-.55,3.87-1.14,5.55-1.01,3.7-2.88,6.98-5.61,9.84-2.73,2.86-5.89,5.28-9.46,7.25-3.58,1.97-7.42,3.47-11.54,4.48-4.12,1.01-8.07,1.51-11.86,1.51-2.27,0-4.82-.11-7.63-.32-2.82-.21-5.68-.67-8.58-1.39-2.9-.72-5.72-1.68-8.45-2.9-2.73-1.22-5.15-2.84-7.25-4.86-2.77-2.02-5.09-3.03-6.94-3.03-1.18,0-2.27.32-3.28.95-1.01.63-2.1,1.58-3.28,2.84l-11.98,16.53c-1.6,2.35-2.4,4.58-2.4,6.68,0,1.68.44,3.22,1.32,4.6.88,1.39,1.95,2.54,3.22,3.47,3.7,3.28,7.97,6.16,12.8,8.64,4.84,2.48,9.84,4.52,15.01,6.12,5.17,1.6,10.36,2.79,15.58,3.6,5.21.8,10.09,1.2,14.63,1.2,11.69,0,22.62-1.85,32.8-5.55,10.17-3.7,18.99-9.08,26.43-16.15,7.44-7.06,13.31-15.73,17.6-25.99,4.29-10.26,6.43-21.95,6.43-35.07V15.82c0-1.51-.29-2.86-.88-4.04-.59-1.18-1.37-2.14-2.33-2.9ZM719.53,89.11c-.25,5.3-1.45,10.22-3.6,14.76-2.14,4.54-4.98,8.49-8.51,11.86-3.53,3.36-7.68,5.99-12.43,7.88-4.75,1.89-9.82,2.84-15.2,2.84s-10.45-1.01-14.95-3.03c-4.5-2.02-8.35-4.79-11.54-8.33-3.2-3.53-5.66-7.71-7.38-12.55-1.72-4.84-2.59-10.07-2.59-15.7s.86-10.51,2.59-15.39c1.72-4.88,4.18-9.12,7.38-12.74,3.19-3.61,7.04-6.5,11.54-8.64,4.5-2.14,9.48-3.22,14.95-3.22s10.45,1.03,15.2,3.09c4.75,2.06,8.89,4.84,12.43,8.32,3.53,3.49,6.37,7.53,8.51,12.11,2.14,4.58,3.34,9.44,3.6,14.57v4.16Z"/>
      <path class="cls-1" d="M1079.28,96.8c-2.57-5.8-6.16-10.79-10.79-14.95-4.63-4.16-10.09-7.67-16.4-10.53-6.31-2.86-13.25-5.51-20.81-7.95-2.02-.59-4.23-1.11-6.62-1.58-2.4-.46-4.67-1.07-6.81-1.83-2.14-.76-3.95-1.74-5.42-2.96-1.47-1.22-2.29-2.92-2.46-5.11-.17-2.94.97-5.13,3.41-6.56,2.44-1.43,5.72-2.14,9.84-2.14,3.28,0,6.81.57,10.6,1.7,3.78,1.14,7.15,3.34,10.09,6.62.67.84,1.43,1.56,2.27,2.14.84.59,1.72,1.01,2.65,1.26.93.25,1.89.27,2.9.06,1.01-.21,2.02-.74,3.03-1.58,3.19-3.2,6.29-6.1,9.27-8.7,2.98-2.61,6.12-5.25,9.4-7.95,1.93-1.68,2.88-3.26,2.84-4.73-.04-1.47-.78-3.05-2.21-4.73-3.95-4.12-7.93-7.67-11.92-10.66-4-2.98-8.1-5.42-12.3-7.32-4.21-1.89-8.62-3.28-13.25-4.16-4.63-.88-9.59-1.32-14.89-1.32-8.75,0-16.69,1.12-23.84,3.34-7.15,2.23-13.29,5.38-18.42,9.46-5.13,4.08-9.08,8.98-11.86,14.7-2.77,5.72-4.16,12.07-4.16,19.05,0,5.97.76,11.65,2.27,17.03,1.51,5.38,4.18,10.41,8.01,15.07,3.83,4.67,9.02,8.89,15.58,12.68,6.56,3.78,14.89,7.02,24.98,9.71,3.19,1.01,6.08,1.89,8.64,2.65,2.56.76,4.73,1.62,6.5,2.59,1.77.97,3.11,2.14,4.04,3.53.92,1.39,1.39,3.26,1.39,5.61,0,2.61-.82,4.63-2.46,6.06-1.64,1.43-3.6,2.46-5.87,3.09-2.27.63-4.65,1.01-7.13,1.14-2.48.13-4.52.19-6.12.19-.67,0-1.94-.21-3.78-.63-1.85-.42-4-1.11-6.43-2.08-2.44-.97-4.98-2.23-7.63-3.78-2.65-1.55-5.11-3.47-7.38-5.74-2.44-2.35-4.44-3.78-5.99-4.29-1.56-.5-3.34.08-5.36,1.77l-16.27,16.27c-1.01.76-1.75,1.66-2.21,2.71-.46,1.05-.72,2.21-.76,3.47-.04,1.26.17,2.54.63,3.85.46,1.3,1.15,2.54,2.08,3.72,3.53,4.63,7.57,8.56,12.11,11.79,4.54,3.24,9.34,5.89,14.38,7.95,5.05,2.06,10.26,3.55,15.64,4.48,5.38.92,10.68,1.39,15.89,1.39,9.16,0,17.72-1.18,25.67-3.53,7.95-2.35,14.82-5.76,20.62-10.22,5.8-4.46,10.36-9.97,13.69-16.53,3.32-6.56,4.98-14,4.98-22.33s-1.28-15.39-3.85-21.19Z"/>
      <path class="cls-1" d="M943.91,7.35c-4.92-2.22-10.43-1.5-16.39,2.16-3.96,2.43-6.13,5.63-6.95,6.84-1.82,2.68-3.64,6.42-5.45,11.17-1.01,2.23-2.07,4.63-3.01,7.04-.55,1.42-2.41,4.92-5.26,8.76-2.4,3.24-5.22,6.2-8.4,8.82-1.35,1.11-1.86,2.96-1.26,4.6.59,1.64,2.15,2.74,3.9,2.74h0c3.58,0,7.15-.35,10.62-1.02,6.86-1.32,11.95-3.65,14.98-5.05,2.41-1.11,5.21-2.46,7.63-4.04,3.42-2.16,6.46-4.87,9.31-7.49,2.94-2.75,5.43-6.1,7.21-9.69,1.1-2.23,1.49-4.04,1.68-4.91.27-1.24.97-4.52.22-8.21-.29-1.42-2.07-8.65-8.85-11.71Z"/>
      <path class="cls-1" d="M944.37,145.47c-1.49-11.24-3.03-22.85-10.42-36.74-2.19-4.12-7.32-13.76-17.36-22.8-6.96-6.26-26.83-21.11-35.28-14.64-3.21,2.42-6.32,7.15-1.74,22.33,4.37,14.51,5.14,25.26,2.26,32.04-1.97,5.27-6.46,9.61-12.62,12.21-7.33,3.09-16.16,3.27-22.53.46-6.67-2.75-12.74-8.73-16.65-16.33-5.05-10.94-1.56-23.4.99-29.89,4.49-12.32,16.03-25.15,34.3-38.13,6.63-4.66,13.74-8.92,21.16-12.67.78-.41,1.39-.69,1.93-.93,1.56-.71,2.69-1.22,5.45-3.65,4.19-4.03,6.02-9.63,5-15.35-1.05-5.97-5.07-11.03-10.73-13.53-.32-.14-.64-.31-1-.51-1.43-.76-3.4-1.81-8.05-2.99-12.12-3.09-21.93-3.51-25.15-3.65-9.9-.43-19.98-.67-29.12-.67-3.27-.05-32.05-.31-37.51,7.54-.58.83-1.08,1.73-1.48,2.66-.75,1.74-.72,3.76.1,5.54l9.83,21.39c1.18,2.57,3.3,4.49,5.96,5.41,2.67.92,5.52.72,8.04-.57,5.91-3.03,12.33-5.22,19.1-6.55-14.53,10.53-27.01,23.23-35,39.82-10.25,21.22-10.77,45.07-1.39,63.8,9.48,18.66,27.46,31.61,46.91,33.78,2.35.3,4.7.44,7.05.44,25.67,0,49.96-17.44,56.08-41.42.23-.97.44-1.93.61-2.88.27,4.77.04,8.75.04,8.83-.12,3.58-.23,6.68-.97,10.72-.62,3.37-1.32,5.44-1.83,6.95-.67,1.97-1.15,3.39-.5,5.35h0c1.02,3.1,4.08,5.37,17.28,8.45,14.47,3.38,21.08,4.92,24.94,1.8,5.15-4.15,4.09-12.17,2.31-25.62Z"/>
    </g>
  </g>
</svg>