<?xml version="1.0" encoding="UTF-8"?>
<svg id="Camada_2" data-name="Camada 2" xmlns="http://www.w3.org/2000/svg" viewBox="0 0 505.19 545.25">
  <defs>
    <style>
      .cls-1 {
        fill: #fff;
      }
    </style>
  </defs>
  <g id="Camada_1" data-name="Camada 1">
    <path class="cls-1" d="M500.57,457.72c-4.68-35.35-9.53-71.9-32.78-115.59-6.89-12.95-23.03-43.28-54.64-71.73-21.89-19.7-84.43-66.42-111.02-46.07-10.11,7.63-19.87,22.51-5.48,70.26,13.76,45.65,16.18,79.49,7.1,100.8-6.21,16.6-20.31,30.24-39.7,38.4-23.06,9.71-50.84,10.29-70.9,1.45-20.98-8.66-40.1-27.47-52.37-51.39-15.9-34.41-4.91-73.63,3.1-94.06,14.12-38.76,50.43-79.13,107.91-119.99,20.85-14.66,43.22-28.05,66.57-39.85,2.47-1.3,4.38-2.16,6.08-2.93,4.91-2.22,8.45-3.82,17.16-11.48,13.19-12.69,18.93-30.29,15.75-48.31-3.32-18.78-15.94-34.7-33.77-42.58-1.02-.45-2.02-.99-3.15-1.59-4.51-2.4-10.7-5.69-25.32-9.41C256.97,3.94,226.13,2.59,216,2.15,184.83.79,153.12.06,124.37.04,114.07-.12,23.53-.92,6.35,23.77c-1.82,2.61-3.39,5.44-4.65,8.37-2.37,5.48-2.26,11.84.32,17.44l30.92,67.31c3.71,8.07,10.38,14.12,18.77,17.03,8.39,2.91,17.37,2.28,25.29-1.78,18.61-9.53,38.8-16.42,60.09-20.62-45.73,33.13-84.98,73.11-110.13,125.28-32.24,66.78-33.88,141.81-4.36,200.75,29.83,58.72,86.41,99.46,147.59,106.3,7.4.94,14.8,1.4,22.17,1.4,80.77,0,157.2-54.86,176.44-130.33.73-3.05,1.37-6.06,1.93-9.07.84,15.01.13,27.52.12,27.78-.38,11.28-.72,21.02-3.06,33.73-1.95,10.6-4.15,17.11-5.75,21.86-2.1,6.2-3.61,10.68-1.58,16.84h0c3.22,9.77,12.84,16.9,54.38,26.6,45.53,10.63,66.32,15.49,78.48,5.68,16.21-13.05,12.86-38.3,7.25-80.61Z"/>
  </g>
</svg>